<!DOCTYPE svg PUBLIC "-//W3C//DTD SVG 1.1//EN" "http://www.w3.org/Graphics/SVG/1.1/DTD/svg11.dtd">
<!-- Uploaded to: SVG Repo, www.svgrepo.com, Transformed by: SVG Repo Mixer Tools -->
<svg height="800px" width="800px" version="1.1" id="Layer_1" xmlns="http://www.w3.org/2000/svg" xmlns:xlink="http://www.w3.org/1999/xlink" viewBox="0 0 511.985 511.985" xml:space="preserve" fill="#000000">
<g id="SVGRepo_bgCarrier" stroke-width="0"/>
<g id="SVGRepo_tracerCarrier" stroke-linecap="round" stroke-linejoin="round"/>
<g id="SVGRepo_iconCarrier"> <polygon style="fill:#2CA019;" points="405.331,10.66 106.66,10.66 0,117.329 0,192.656 511.984,207.217 511.984,117.329 "/> <polygon style="fill:#2CA019;" points="394.643,501.325 0,501.325 0,117.329 511.984,117.329 511.984,383.985 "/> <polygon style="fill:#E6E9ED;" points="298.647,10.66 213.329,10.66 191.994,138.657 319.99,138.657 "/> <polygon style="fill:#F5F7FA;" points="319.99,213.326 298.647,223.983 277.335,213.326 255.992,223.983 234.657,213.326 213.329,223.983 191.994,213.326 191.994,117.329 319.99,117.329 "/> <g> <path style="fill:#434A54;" d="M159.995,394.641H53.334c-5.891,0-10.672,4.781-10.672,10.688c0,5.875,4.781,10.656,10.672,10.656 h106.661c5.891,0,10.663-4.781,10.663-10.656C170.658,399.423,165.886,394.641,159.995,394.641z"/> <path style="fill:#434A54;" d="M106.66,437.327H53.334c-5.891,0-10.672,4.75-10.672,10.656c0,5.875,4.781,10.656,10.672,10.656 h53.326c5.891,0,10.672-4.781,10.672-10.656C117.332,442.077,112.551,437.327,106.66,437.327z"/> </g> <path style="fill:#ED5564;" d="M277.335,383.985c0-64.811,52.529-117.332,117.309-117.332c64.811,0,117.341,52.521,117.341,117.332 s-52.53,117.34-117.341,117.34C329.864,501.325,277.335,448.796,277.335,383.985z"/> <path style="fill:#434A54;" d="M447.455,421.704L447.455,421.704l-42.124-42.125v-59.592c0-5.906-4.781-10.656-10.688-10.656 c-5.875,0-10.655,4.75-10.655,10.656v63.998c0,2.938,1.188,5.625,3.125,7.531l0,0l45.249,45.248l0,0 c4.172,4.188,10.921,4.188,15.093,0C451.611,432.608,451.611,425.86,447.455,421.704z"/> </g>
</svg>